<svg xmlns="http://www.w3.org/2000/svg" xmlns:xlink="http://www.w3.org/1999/xlink" width="108" height="26" viewBox="0 0 108 26">
    <defs>
        <path id="a" d="M25.552 25.477H.135V.06h25.417v25.417z"/>
        <path id="c" d="M25.466.06v25.417H.05V.06h25.417z"/>
    </defs>
    <g fill="none" fill-rule="evenodd">
        <g transform="translate(22.21 .158)">
            <mask id="b" fill="#fff">
                <use xlink:href="#a"/>
            </mask>
            <path fill="#FEFEFE" d="M12.844.06H3.208A3.072 3.072 0 0 0 .135 3.132v9.562a3.063 3.063 0 0 0 6.126 0v-6.49h6.583a6.571 6.571 0 0 1 6.564 6.565 6.572 6.572 0 0 1-6.564 6.563H.135v6.145h12.709c3.395 0 6.586-1.322 8.986-3.722 2.4-2.4 3.722-5.592 3.722-8.986 0-3.395-1.322-6.586-3.722-8.986A12.623 12.623 0 0 0 12.844.06" mask="url(#b)"/>
        </g>
        <path fill="#FEFEFE" d="M64.133 6.363h9.636a3.073 3.073 0 0 0 0-6.145h-9.637a12.625 12.625 0 0 0-8.986 3.722 12.626 12.626 0 0 0-3.722 8.987c0 3.394 1.322 6.585 3.722 8.985 2.4 2.401 5.592 3.723 8.987 3.723H76.84V19.49H64.133a6.57 6.57 0 0 1-5.805-3.501h1.317v.01h6.145V9.854h-6.145v.01h-1.317a6.57 6.57 0 0 1 5.805-3.501"/>
        <g transform="translate(81.657 .158)">
            <mask id="d" fill="#fff">
                <use xlink:href="#c"/>
            </mask>
            <path fill="#FEFEFE" d="M25.465 12.651a12.625 12.625 0 0 0-3.721-8.869A12.626 12.626 0 0 0 12.758.06a12.626 12.626 0 0 0-8.986 3.722A12.628 12.628 0 0 0 .049 12.77V25.477h6.145V12.769a6.571 6.571 0 0 1 6.564-6.564 6.57 6.57 0 0 1 5.766 3.43h-4.05a3.063 3.063 0 0 0 0 6.125h4.848v9.717h6.144V12.708l-.001-.057" mask="url(#d)"/>
        </g>
        <path fill="#FEFEFE" d="M14.31 8.716a3.063 3.063 0 0 0-3.062 3.063V25.635h6.126V11.779a3.063 3.063 0 0 0-3.063-3.063M14.31.218a3.062 3.062 0 1 0 0 6.125 3.062 3.062 0 0 0 0-6.125M3.063 8.716A3.063 3.063 0 0 0 0 11.78V25.635h6.125V11.779a3.063 3.063 0 0 0-3.062-3.063M3.063.218a3.062 3.062 0 1 0 0 6.125 3.062 3.062 0 0 0 0-6.125"/>
    </g>
</svg>
